<svg width="60" height="60" viewBox="0 0 60 60" fill="none" xmlns="http://www.w3.org/2000/svg">
<path d="M2.87314 0.000139582C2.2502 -0.00622823 1.64613 0.213766 1.17318 0.619242C0.700229 1.02472 0.390559 1.5881 0.301714 2.20471C0.103275 3.6132 0.00246331 5.03372 0 6.45612C0 22.0492 12.0823 34.8103 27.4286 36.1029V57.4286C27.4286 58.1106 27.6995 58.7646 28.1817 59.2468C28.664 59.7291 29.318 60 30 60C30.682 60 31.336 59.7291 31.8183 59.2468C32.3005 58.7646 32.5714 58.1106 32.5714 57.4286V36.1029C47.9177 34.8103 60 22.0458 60 6.4527C60 5.0127 59.8983 3.59556 59.6949 2.20128C59.6053 1.5853 59.2953 1.02273 58.8224 0.617951C58.3495 0.21317 57.7459 -0.00634299 57.1234 0.000139582C51.3857 0.0485287 45.782 1.73947 40.9752 4.87289C36.1684 8.00632 32.3598 12.4511 30 17.6812C27.64 12.4505 23.8308 8.00543 19.0234 4.87197C14.2159 1.73851 8.61142 0.047876 2.87314 0.000139582Z" fill="#98AF6D"/>
</svg>
