<svg width="66" height="70" viewBox="0 0 66 70" fill="none" xmlns="http://www.w3.org/2000/svg">
<path d="M64.491 43.5462L58.195 37.9393C56.3722 36.3169 56.3722 33.6593 58.195 32.037L64.491 26.4263C66.3139 24.804 65.829 23.2947 63.4119 23.0578L55.0634 22.2667C52.65 22.0406 51.3449 19.959 52.1797 17.6513L56.6092 5.3181C57.4404 3.00312 56.4233 2.16463 54.3525 3.44424L44.5057 9.53246C44.0176 9.83699 43.4726 10.0388 42.9039 10.1254C42.3352 10.2121 41.7548 10.1818 41.1982 10.0364C40.6416 9.89101 40.1205 9.63361 39.6669 9.27993C39.2132 8.92624 38.8364 8.48372 38.5596 7.97942L34.9942 1.61413C33.7948 -0.529499 31.8152 -0.536791 30.5939 1.58497L27.28 7.34508C26.0515 9.47777 23.2407 10.3819 21.0351 9.37205L15.202 6.69615C12.9855 5.67537 11.2903 6.84927 11.4215 9.30643L11.735 15.1941C11.8699 17.6513 10.0544 20.1777 7.71025 20.8121L2.07775 22.3214C-0.262752 22.9557 -0.692937 24.8004 1.12988 26.4227L7.4259 32.0333C9.24871 33.6556 9.24871 36.3133 7.4259 37.9356L1.12988 43.5462C-0.692937 45.1686 -0.211713 46.7435 2.19805 47.0351L9.83566 47.9611C12.2454 48.2528 13.587 50.4037 12.8178 52.7405L8.90238 64.618C8.13315 66.9549 9.23049 67.859 11.3377 66.6414L20.3169 61.4427C21.3642 60.8618 22.5905 60.6923 23.7562 60.9674C24.9218 61.2424 25.943 61.9422 26.6202 62.9301L30.346 68.5407C31.7022 70.5786 33.7401 70.4693 34.8666 68.2928L38.144 61.9749C38.6897 60.9268 39.6231 60.1332 40.7455 59.7634C41.8678 59.3936 43.0902 59.4768 44.152 59.9954L50.4736 63.1561C52.6537 64.2389 54.327 63.1197 54.1958 60.6698L53.8786 54.7748C53.751 52.3176 55.5592 49.7985 57.9107 49.1642L63.5359 47.6476C65.8837 47.0132 66.3139 45.1686 64.491 43.5462ZM36.4561 49.5834H29.1648V42.2921H36.4561V49.5834ZM36.4561 38.6465H29.1648V20.4183H36.4561V38.6465Z" fill="#98AF6D"/>
</svg>
