<svg width="58" height="67" viewBox="0 0 58 67" fill="none" xmlns="http://www.w3.org/2000/svg">
<path d="M0 38.2857C0 45.9012 3.02525 53.2048 8.41022 58.5898C13.7952 63.9748 21.0988 67 28.7143 67C28.7143 51.0476 15.8567 38.2857 0 38.2857ZM28.7143 14.3571C30.8297 14.3571 32.8585 15.1975 34.3543 16.6933C35.8501 18.1891 36.6905 20.2179 36.6905 22.3333C36.6905 24.4488 35.8501 26.4775 34.3543 27.9734C32.8585 29.4692 30.8297 30.3095 28.7143 30.3095C26.5989 30.3095 24.5701 29.4692 23.0743 27.9734C21.5784 26.4775 20.7381 24.4488 20.7381 22.3333C20.7381 20.2179 21.5784 18.1891 23.0743 16.6933C24.5701 15.1975 26.5989 14.3571 28.7143 14.3571ZM8.29524 29.5119C8.29524 31.6273 9.13558 33.6561 10.6314 35.1519C12.1272 36.6477 14.156 37.4881 16.2714 37.4881C17.9624 37.4881 19.5257 36.9457 20.7381 36.0843V36.6905C20.7381 38.8059 21.5784 40.8347 23.0743 42.3305C24.5701 43.8263 26.5989 44.6667 28.7143 44.6667C30.8297 44.6667 32.8585 43.8263 34.3543 42.3305C35.8501 40.8347 36.6905 38.8059 36.6905 36.6905V36.0843C37.9029 36.9457 39.4662 37.4881 41.1571 37.4881C43.2726 37.4881 45.3013 36.6477 46.7972 35.1519C48.293 33.6561 49.1333 31.6273 49.1333 29.5119C49.1333 26.3214 47.251 23.6095 44.571 22.3333C47.251 21.0571 49.1333 18.3133 49.1333 15.1548C49.1333 13.0393 48.293 11.0106 46.7972 9.51474C45.3013 8.01892 43.2726 7.17857 41.1571 7.17857C39.4662 7.17857 37.9029 7.68905 36.6905 8.58238V7.97619C36.6905 5.86077 35.8501 3.832 34.3543 2.33617C32.8585 0.840346 30.8297 0 28.7143 0C26.5989 0 24.5701 0.840346 23.0743 2.33617C21.5784 3.832 20.7381 5.86077 20.7381 7.97619V8.58238C19.5257 7.68905 17.9624 7.17857 16.2714 7.17857C14.156 7.17857 12.1272 8.01892 10.6314 9.51474C9.13558 11.0106 8.29524 13.0393 8.29524 15.1548C8.29524 18.3133 10.1776 21.0571 12.8576 22.3333C10.1776 23.6095 8.29524 26.3214 8.29524 29.5119ZM28.7143 67C36.3298 67 43.6334 63.9748 49.0184 58.5898C54.4033 53.2048 57.4286 45.9012 57.4286 38.2857C41.4762 38.2857 28.7143 51.0476 28.7143 67Z" fill="#98AF6D"/>
</svg>
