<svg width="36" height="33" viewBox="0 0 36 33" fill="none" xmlns="http://www.w3.org/2000/svg">
<path d="M18 7.33333C18 7.33333 18 7.33333 16.6489 5.55556C15.0844 3.49333 12.7733 2 10 2C5.57333 2 2 5.57333 2 10C2 11.6533 2.49778 13.1822 3.35111 14.4444C4.79111 16.5956 18 30.4444 18 30.4444M18 7.33333C18 7.33333 18 7.33333 19.3511 5.55556C20.9156 3.49333 23.2267 2 26 2C30.4267 2 34 5.57333 34 10C34 11.6533 33.5022 13.1822 32.6489 14.4444C31.2089 16.5956 18 30.4444 18 30.4444" fill="#98AF6D"/>
<path d="M18 7.33333C18 7.33333 18 7.33333 16.6489 5.55556C15.0844 3.49333 12.7733 2 10 2C5.57333 2 2 5.57333 2 10C2 11.6533 2.49778 13.1822 3.35111 14.4444C4.79111 16.5956 18 30.4444 18 30.4444C18 30.4444 31.2089 16.5956 32.6489 14.4444C33.5022 13.1822 34 11.6533 34 10C34 5.57333 30.4267 2 26 2C23.2267 2 20.9156 3.49333 19.3511 5.55556C18 7.33333 18 7.33333 18 7.33333Z" stroke="#98AF6D" stroke-width="3.55556" stroke-linecap="round" stroke-linejoin="round"/>
</svg>
