<svg width="18" height="19" viewBox="0 0 18 19" fill="none" xmlns="http://www.w3.org/2000/svg">
<path d="M9.92521 0.5C10.9377 0.5027 11.4515 0.5081 11.8952 0.5207L12.0698 0.526999C12.2714 0.534199 12.4703 0.543199 12.7106 0.553999C13.6681 0.598998 14.3215 0.750194 14.8948 0.972489C15.4887 1.20108 15.9891 1.51068 16.4895 2.01016C16.9473 2.45991 17.3014 3.00416 17.5271 3.60492C17.7494 4.17821 17.9006 4.83159 17.9456 5.79007C17.9564 6.02947 17.9654 6.22836 17.9726 6.43086L17.978 6.60545C17.9915 7.04824 17.9969 7.56213 17.9987 8.5746L17.9996 9.24599V10.425C18.0018 11.0814 17.9949 11.7379 17.9789 12.3941L17.9735 12.5687C17.9663 12.7712 17.9573 12.9701 17.9465 13.2095C17.9015 14.168 17.7485 14.8205 17.5271 15.3946C17.3014 15.9954 16.9473 16.5397 16.4895 16.9894C16.0397 17.4472 15.4955 17.8013 14.8948 18.0271C14.3215 18.2494 13.6681 18.4006 12.7106 18.4456L12.0698 18.4726L11.8952 18.478C11.4515 18.4906 10.9377 18.4969 9.92521 18.4987L9.25384 18.4996H8.0758C7.41907 18.5019 6.76234 18.495 6.1058 18.4789L5.93121 18.4735C5.71757 18.4654 5.50398 18.4561 5.29044 18.4456C4.33289 18.4006 3.67953 18.2494 3.10536 18.0271C2.50493 17.8012 1.96101 17.4471 1.51154 16.9894C1.05341 16.5397 0.698975 15.9955 0.472988 15.3946C0.250699 14.8214 0.0995068 14.168 0.0545091 13.2095L0.0275105 12.5687L0.0230108 12.3941C0.00642112 11.7379 -0.00107931 11.0814 0.000511891 10.425V8.5746C-0.00197909 7.91816 0.00462128 7.26171 0.020311 6.60545L0.0266106 6.43086C0.0338103 6.22836 0.0428098 6.02947 0.0536092 5.79007C0.098607 4.83159 0.249799 4.17911 0.472088 3.60492C0.698602 3.00392 1.05366 2.45965 1.51244 2.01016C1.96165 1.55257 2.50525 1.19845 3.10536 0.972489C3.67953 0.750194 4.33199 0.598998 5.29044 0.553999C5.52983 0.543199 5.72962 0.534199 5.93121 0.526999L6.1058 0.521599C6.76204 0.505609 7.41847 0.498709 8.0749 0.5009L9.92521 0.5ZM9.00006 4.99989C7.80664 4.99989 6.66211 5.47399 5.81824 6.31788C4.97437 7.16177 4.50029 8.30634 4.50029 9.49978C4.50029 10.6932 4.97437 11.8378 5.81824 12.6817C6.66211 13.5256 7.80664 13.9997 9.00006 13.9997C10.1935 13.9997 11.338 13.5256 12.1819 12.6817C13.0257 11.8378 13.4998 10.6932 13.4998 9.49978C13.4998 8.30634 13.0257 7.16177 12.1819 6.31788C11.338 5.47399 10.1935 4.99989 9.00006 4.99989ZM9.00006 6.79985C9.35461 6.79979 9.7057 6.86957 10.0333 7.0052C10.3609 7.14083 10.6585 7.33965 10.9093 7.59032C11.16 7.84099 11.3589 8.1386 11.4947 8.46615C11.6304 8.7937 11.7003 9.14477 11.7004 9.49933C11.7004 9.85389 11.6307 10.205 11.495 10.5326C11.3594 10.8602 11.1606 11.1579 10.9099 11.4086C10.6593 11.6594 10.3617 11.8583 10.0341 11.994C9.70658 12.1298 9.35551 12.1997 9.00096 12.1997C8.28491 12.1997 7.59819 11.9153 7.09187 11.4089C6.58554 10.9026 6.30109 10.2158 6.30109 9.49978C6.30109 8.78372 6.58554 8.09698 7.09187 7.59064C7.59819 7.0843 8.28491 6.79985 9.00096 6.79985M13.7257 3.64992C13.4274 3.64992 13.1412 3.76845 12.9303 3.97942C12.7193 4.19039 12.6008 4.47654 12.6008 4.7749C12.6008 5.07326 12.7193 5.3594 12.9303 5.57037C13.1412 5.78135 13.4274 5.89987 13.7257 5.89987C14.0241 5.89987 14.3102 5.78135 14.5212 5.57037C14.7321 5.3594 14.8507 5.07326 14.8507 4.7749C14.8507 4.47654 14.7321 4.19039 14.5212 3.97942C14.3102 3.76845 14.0241 3.64992 13.7257 3.64992Z" fill="#4F5637"/>
</svg>
