<svg width="63" height="63" viewBox="0 0 63 63" fill="none" xmlns="http://www.w3.org/2000/svg">
<path d="M30.0074 51.8999C30.9199 52.8124 32.3983 52.8156 33.3148 51.9072L36.1166 49.13C38.6055 46.6629 38.6056 42.6396 36.1166 40.1725L33.3148 37.3953C32.3983 36.4868 30.9199 36.4901 30.0074 37.4026L29.3769 38.033C28.8098 38.6002 28.8098 39.5198 29.3769 40.0869C30.2743 40.9843 29.6585 42.3982 28.4352 42.0605C28.1032 41.9688 27.7735 41.8612 27.4459 41.7375C26.0557 41.2125 24.8083 40.3987 23.7037 39.2962C22.6537 38.2462 21.8526 37.0387 21.3003 35.6737C20.748 34.3087 20.4729 32.9437 20.475 31.5787C20.475 30.6862 20.5936 29.7937 20.8309 28.9012C20.9127 28.5937 21.0052 28.2892 21.1084 27.9879C21.4624 26.9545 21.2933 25.782 20.5209 25.0097C19.3933 23.8821 17.497 24.0603 16.8918 25.5356C16.6937 26.0184 16.5231 26.5102 16.38 27.0112C15.96 28.4812 15.75 29.9775 15.75 31.5C15.75 33.495 16.1437 35.4637 16.9312 37.4062C17.7187 39.3487 18.8737 41.0812 20.3962 42.6037C21.9187 44.1262 23.625 45.2686 25.515 46.0309C26.465 46.4141 27.4282 46.7073 28.4047 46.9106C29.4979 47.1382 30.0381 48.5544 29.2485 49.344C28.7523 49.8402 28.7523 50.6448 29.2485 51.141L30.0074 51.8999ZM42.4825 37.9937C43.6083 39.1195 45.5016 38.9416 46.1064 37.4688C46.3052 36.9847 46.4764 36.4913 46.62 35.9887C47.04 34.5187 47.25 33.0225 47.25 31.5C47.25 29.505 46.8688 27.5226 46.1065 25.5528C45.3442 23.583 44.2029 21.8379 42.6825 20.3175C41.1621 18.7971 39.4422 17.6683 37.5228 16.9312C36.5799 16.5692 35.6284 16.2963 34.6683 16.1125C33.5592 15.9003 32.9831 14.4683 33.7711 13.6595C34.2583 13.1594 34.2532 12.3607 33.7595 11.867L33.0033 11.1108C32.0849 10.1924 30.5968 10.1891 29.6743 11.1035L26.8834 13.87C24.3944 16.3371 24.3944 20.3604 26.8834 22.8275L29.6851 25.6047C30.6016 26.5131 32.0801 26.5099 32.9926 25.5974L33.6351 24.9549C34.1956 24.3944 34.1956 23.4856 33.6351 22.9251C32.7309 22.021 33.3736 20.6267 34.5985 20.9935C34.9033 21.0848 35.2092 21.1881 35.5162 21.3034C36.9862 21.8557 38.2462 22.6558 39.2962 23.7037C40.3462 24.7516 41.1474 25.9591 41.6997 27.3262C42.252 28.6933 42.5271 30.0583 42.525 31.4212C42.525 32.3137 42.4074 33.2062 42.1722 34.0987C42.0914 34.4053 41.9996 34.7088 41.8967 35.0091C41.5423 36.0445 41.7087 37.2199 42.4825 37.9937ZM31.5 63C27.1425 63 23.0475 62.1726 19.215 60.5178C15.3825 58.863 12.0487 56.6191 9.21375 53.7862C6.37875 50.9533 4.1349 47.6196 2.4822 43.785C0.829504 39.9504 0.00210399 35.8554 3.98734e-06 31.5C-0.00209601 27.1446 0.825304 23.0496 2.4822 19.215C4.1391 15.3804 6.38295 12.0466 9.21375 9.21375C12.0445 6.38085 15.3783 4.137 19.215 2.4822C23.0517 0.8274 27.1467 0 31.5 0C35.8533 0 39.9483 0.8274 43.785 2.4822C47.6217 4.137 50.9554 6.38085 53.7862 9.21375C56.617 12.0466 58.8619 15.3804 60.5209 19.215C62.1799 23.0496 63.0063 27.1446 63 31.5C62.9937 35.8554 62.1663 39.9504 60.5178 43.785C58.8693 47.6196 56.6254 50.9533 53.7862 53.7862C50.947 56.6191 47.6133 58.864 43.785 60.5209C39.9567 62.1778 35.8617 63.0042 31.5 63Z" fill="#98AF6D"/>
</svg>
