<svg width="19" height="19" viewBox="0 0 19 19" fill="none" xmlns="http://www.w3.org/2000/svg">
<path d="M5.375 0.8125C5.875 0.8125 7.875 5.3125 7.875 5.8125C7.875 6.8125 6.375 7.8125 5.875 8.8125C5.375 9.8125 6.375 10.8125 7.375 11.8125C7.765 12.2025 9.375 13.8125 10.375 13.3125C11.375 12.8125 12.375 11.3125 13.375 11.3125C13.875 11.3125 18.375 13.3125 18.375 13.8125C18.375 15.8125 16.875 17.3125 15.375 17.8125C13.875 18.3125 12.875 18.3125 10.875 17.8125C8.875 17.3125 7.375 16.8125 4.875 14.3125C2.375 11.8125 1.875 10.3125 1.375 8.3125C0.875 6.3125 0.875 5.3125 1.375 3.8125C1.875 2.3125 3.375 0.8125 5.375 0.8125Z" fill="white" stroke="white" stroke-linecap="round" stroke-linejoin="round"/>
</svg>
