<svg width="78" height="60" viewBox="0 0 78 60" fill="none" xmlns="http://www.w3.org/2000/svg">
<path d="M38.8234 31.7647C45.4339 31.7647 51.4233 33.9529 55.8174 37.0129C59.9927 39.9247 63.5291 44.2518 63.5291 48.9071C63.5291 51.4624 62.4385 53.58 60.7197 55.1541C59.1033 56.64 56.9927 57.6035 54.8186 58.26C50.4739 59.5765 44.7527 60 38.8234 60C32.894 60 27.1728 59.5765 22.8281 58.26C20.654 57.6035 18.5434 56.64 16.9235 55.1541C15.2117 53.5835 14.1176 51.4659 14.1176 48.9106C14.1176 44.2553 17.654 39.9282 21.8293 37.0165C26.2234 33.9529 32.2128 31.7647 38.8234 31.7647ZM63.5291 35.2941C67.2138 35.2941 70.5597 36.5118 73.0338 38.2341C75.2926 39.8118 77.6467 42.4341 77.6467 45.6318C77.6467 47.4565 76.8526 48.9706 75.6702 50.0541C74.5903 51.0459 73.2561 51.6282 72.0385 51.9953C70.3797 52.4965 68.4209 52.7541 66.3879 52.8671C66.8185 51.6494 67.0585 50.3259 67.0585 48.9071C67.0585 43.4894 63.6738 38.8871 59.8868 35.6929C61.0829 35.4287 62.3042 35.295 63.5291 35.2941ZM14.1176 35.2941C15.3811 35.2988 16.5952 35.4318 17.7599 35.6929C13.9764 38.8871 10.5882 43.4894 10.5882 48.9071C10.5882 50.3259 10.8282 51.6494 11.2588 52.8671C9.22584 52.7541 7.27056 52.4965 5.60821 51.9953C4.39057 51.6282 3.05646 51.0459 1.97293 50.0541C1.35185 49.4977 0.855115 48.8166 0.515154 48.0551C0.175193 47.2937 -0.000345418 46.4692 5.10289e-07 45.6353C5.10289e-07 42.4412 2.35058 39.8153 4.61292 38.2376C7.41124 36.3192 10.7248 35.293 14.1176 35.2941ZM61.7644 14.1176C64.1046 14.1176 66.3489 15.0473 68.0036 16.702C69.6583 18.3567 70.5879 20.601 70.5879 22.9412C70.5879 25.2813 69.6583 27.5256 68.0036 29.1804C66.3489 30.8351 64.1046 31.7647 61.7644 31.7647C59.4243 31.7647 57.18 30.8351 55.5253 29.1804C53.8706 27.5256 52.9409 25.2813 52.9409 22.9412C52.9409 20.601 53.8706 18.3567 55.5253 16.702C57.18 15.0473 59.4243 14.1176 61.7644 14.1176ZM15.8823 14.1176C18.2224 14.1176 20.4667 15.0473 22.1214 16.702C23.7762 18.3567 24.7058 20.601 24.7058 22.9412C24.7058 25.2813 23.7762 27.5256 22.1214 29.1804C20.4667 30.8351 18.2224 31.7647 15.8823 31.7647C13.5421 31.7647 11.2979 30.8351 9.64313 29.1804C7.98841 27.5256 7.05879 25.2813 7.05879 22.9412C7.05879 20.601 7.98841 18.3567 9.64313 16.702C11.2979 15.0473 13.5421 14.1176 15.8823 14.1176ZM38.8234 0C42.5676 0 46.1584 1.48739 48.806 4.13496C51.4536 6.78254 52.9409 10.3734 52.9409 14.1176C52.9409 17.8619 51.4536 21.4528 48.806 24.1003C46.1584 26.7479 42.5676 28.2353 38.8234 28.2353C35.0791 28.2353 31.4883 26.7479 28.8407 24.1003C26.1932 21.4528 24.7058 17.8619 24.7058 14.1176C24.7058 10.3734 26.1932 6.78254 28.8407 4.13496C31.4883 1.48739 35.0791 0 38.8234 0Z" fill="#98AF6D"/>
</svg>
