<svg width="664" height="326" viewBox="0 0 664 326" fill="none" xmlns="http://www.w3.org/2000/svg">
<path d="M262.63 137.05C226.08 137.05 196.35 107.32 196.35 70.77V66.89H230.68C230.4 63.86 230.26 60.77 230.26 57.68C230.26 27.13 258.93 3.05999 260.15 2.04999L262.62 0L265.09 2.04999C266.31 3.05999 294.98 27.13 294.98 57.68C294.98 60.77 294.84 63.86 294.56 66.89H328.89V70.77C328.89 107.32 299.16 137.05 262.61 137.05H262.63ZM204.24 74.65C206.24 105.12 231.67 129.29 262.63 129.29C293.59 129.29 319.02 105.12 321.02 74.65H285.77L286.38 70.24C286.95 66.16 287.23 61.93 287.23 57.68C287.23 35.72 269.31 16.63 262.62 10.27C255.93 16.63 238.01 35.72 238.01 57.68C238.01 61.93 238.3 66.16 238.86 70.24L239.47 74.65H204.22H204.24Z" fill="#98AF6D"/>
<path d="M331.019 137.05C294.469 137.05 264.739 107.32 264.739 70.77V66.89H299.069C298.789 63.85 298.649 60.77 298.649 57.68C298.649 27.13 327.319 3.05999 328.539 2.04999L331.009 0L333.479 2.04999C334.699 3.05999 363.369 27.13 363.369 57.68C363.369 60.77 363.229 63.86 362.949 66.89H397.279V70.77C397.279 107.32 367.549 137.05 330.999 137.05H331.019ZM272.629 74.65C274.629 105.12 300.059 129.29 331.019 129.29C361.979 129.29 387.409 105.12 389.409 74.65H354.159L354.769 70.24C355.339 66.16 355.619 61.93 355.619 57.68C355.619 35.72 337.699 16.63 331.009 10.27C324.319 16.63 306.399 35.72 306.399 57.68C306.399 61.93 306.689 66.16 307.249 70.24L307.859 74.65H272.609H272.629Z" fill="#98AF6D"/>
<path d="M400.509 137.05C363.959 137.05 334.229 107.32 334.229 70.77V66.89H368.56C368.28 63.86 368.14 60.77 368.14 57.68C368.14 27.13 396.809 3.05999 398.029 2.04999L400.5 0L402.97 2.04999C404.19 3.05999 432.86 27.13 432.86 57.68C432.86 60.77 432.72 63.86 432.44 66.89H466.769V70.77C466.769 107.32 437.04 137.05 400.49 137.05H400.509ZM342.12 74.65C344.12 105.12 369.549 129.29 400.509 129.29C431.469 129.29 456.899 105.12 458.899 74.65H423.649L424.259 70.24C424.829 66.16 425.11 61.93 425.11 57.68C425.11 35.72 407.19 16.63 400.5 10.27C393.81 16.63 375.89 35.72 375.89 57.68C375.89 61.93 376.18 66.16 376.74 70.24L377.35 74.65H342.1H342.12Z" fill="#98AF6D"/>
<path d="M28.7 235.55L22.56 216.56H23.99C31.98 216.56 41.12 207.71 41.12 188.15C41.12 173.16 35.55 166.31 23.7 166.31H20.27V253.53C20.27 257.38 22.13 257.38 26.84 257.53V258.39H0V257.53C3.85 257.39 6.28003 257.39 6.28003 253.53V159.74C6.28003 155.89 3.85 155.89 0 155.74V154.88H23.84C48.39 154.88 55.25 170.15 55.25 186C55.25 201.85 47.26 211.98 36.41 215.69L42.55 232.96C47.69 247.38 51.26 253.95 57.11 253.95C59.82 253.95 61.82 252.24 63.11 247.53L63.68 247.67C62.82 252.67 60.11 261.09 51.26 261.23C40.98 261.37 34.42 253.24 28.7 235.53V235.55Z" fill="#4F5637"/>
<path d="M92.2299 259.82C74.8099 259.82 65.96 246.26 65.96 221.42C65.96 196.58 74.8099 183.45 92.2299 183.45C109.65 183.45 118.5 196.87 118.5 221.42C118.5 245.97 109.65 259.82 92.2299 259.82ZM92.2299 193.01C83.9499 193.01 80.3799 202.43 80.3799 221.85C80.3799 241.27 83.6599 250.26 92.2299 250.26C100.8 250.26 104.08 240.84 104.08 221.28C104.08 201.72 100.8 193.01 92.2299 193.01Z" fill="#4F5637"/>
<path d="M154.76 259.82C148.48 259.82 143.91 256.25 143.2 250.26C138.35 252.54 134.35 254.97 130.64 258.4H130.21V160.47C130.21 157.33 129.21 155.62 125.36 155.62V154.76C133.5 154.76 139.21 154.05 143.92 151.33V245.98C144.92 248.55 147.92 249.83 150.49 249.83C160.91 249.83 166.34 238.27 166.34 218.85C166.34 203.58 162.2 191.3 153.06 191.3C149.35 191.3 146.92 194.01 146.92 196.44H146.21C146.21 189.45 150.06 183.45 159.91 183.45C175.61 183.45 180.75 199.3 180.75 218C180.75 242.98 171.19 259.83 154.77 259.83L154.76 259.82Z" fill="#4F5637"/>
<path d="M216.86 183.45C231.14 183.45 238.42 192.3 238.42 206.29C238.42 209.57 237.99 213.29 237.14 217.14C234.57 217.43 228.57 217.57 222.72 217.57C216.87 217.57 210.87 217 208.16 216.71L208.3 215.57C213.3 215.43 220.58 214.14 224.72 213.14C225.29 210.29 225.43 208 225.43 205.15C225.43 198.3 222.15 192.3 216.44 192.3C206.45 192.3 204.88 206.72 204.88 222.99C204.88 239.26 211.3 250.26 224.01 250.26C230.15 250.26 235.14 247.12 236.72 241.41L237.86 241.84C235.43 252.26 228.87 259.83 216.87 259.83C198.88 259.83 190.6 245.41 190.6 223C190.6 200.59 198.31 183.46 216.87 183.46L216.86 183.45Z" fill="#4F5637"/>
<path d="M246.7 258.39V257.82C250.55 257.68 251.55 255.96 251.55 253.54V194.01C251.55 190.87 250.55 189.16 246.7 189.16V188.3C253.27 188.3 257.69 187.16 261.69 184.87V206.85H262.69C263.12 193.29 267.83 183.44 279.96 183.44C287.67 183.44 292.52 188.44 292.52 195.43C292.52 204.42 285.38 209.56 275.1 209.56V208.7C280.38 208.7 282.38 204.85 282.38 200.99C282.38 197.13 280.38 194.14 275.39 194.14C269.25 194.14 265.25 199.85 265.25 210.13V253.53C265.25 255.96 265.96 257.53 273.24 257.81V258.38H246.69L246.7 258.39Z" fill="#4F5637"/>
<path d="M322.07 259.82C311.08 259.82 305.94 253.82 305.94 240.26V192.87L300.09 193.58V188.87L306.23 188.73L314.37 163.89H315.37L319.51 188.59L336.93 188.3L337.07 189.16L319.65 191.3V239.26C319.65 246.11 322.93 250.82 329.07 250.82C333.5 250.82 335.64 248.39 336.49 244.25L337.63 244.68C336.2 255.1 331.21 259.81 322.07 259.81V259.82Z" fill="#4F5637"/>
<path d="M370.18 211C368.61 215.71 364.33 218.42 359.62 218.42C350.63 218.42 344.35 212.14 344.35 203.15C344.35 191.02 353.2 183.45 365.62 183.45C384.04 183.45 389.89 195.73 389.89 214V242.12C389.89 250.69 390.6 254.83 394.03 254.83C395.6 254.83 396.88 253.97 396.88 251.83C396.88 251.26 396.74 250.55 396.59 249.69L397.16 249.55C397.59 250.69 397.73 251.69 397.73 252.55C397.73 256.83 394.3 259.83 389.45 259.83C381.03 259.83 377.6 255.69 377.6 249.41C377.6 247.55 378.03 244.13 378.6 240.7H378.03C374.6 255.55 366.75 259.83 357.62 259.83C350.63 259.83 342.92 255.55 342.92 246.27C342.92 233.28 355.2 228.43 373.61 228.43H374.75L374.89 229.29H374.18C367.19 229.29 356.91 234.29 356.91 242.42C356.91 247.84 360.34 250.41 365.62 250.41C370.9 250.41 374.76 246.13 376.18 240.56V214.01C376.18 203.16 374.04 193.74 365.19 193.74C358.62 193.74 353.77 197.74 353.77 205.02C353.77 209.87 356.2 215.01 362.91 215.01C366.05 215.01 368.76 213.44 369.76 211.01H370.19L370.18 211Z" fill="#4F5637"/>
<path d="M429.57 154.9H441.7C446.7 154.9 453.41 154.47 455.83 153.47L472.82 200.44L489.81 153.47C492.38 154.47 499.37 154.9 502.52 154.9H515.22V155.76C511.08 156.05 508.94 155.9 508.94 159.61V253.4C508.94 257.25 511.37 257.25 515.22 257.54V258.4H489.24V257.54C492.52 257.25 495.52 257.4 495.52 253.54V170.17L474.82 224.27C473.96 226.55 472.68 229.84 472.68 231.84H471.82L449.26 170.17V253.54C449.26 257.39 450.26 257.39 454.97 257.54V258.4H429.56V257.54C433.41 257.4 435.84 257.4 435.84 253.54V159.61C435.84 156.04 433.41 155.9 429.56 155.76V154.9H429.57Z" fill="#4F5637"/>
<path d="M548.92 259.82C531.5 259.82 522.65 246.26 522.65 221.42C522.65 196.58 531.5 183.45 548.92 183.45C566.34 183.45 575.19 196.87 575.19 221.42C575.19 245.97 566.34 259.82 548.92 259.82ZM548.92 193.01C540.64 193.01 537.07 202.43 537.07 221.85C537.07 241.27 540.35 250.26 548.92 250.26C557.49 250.26 560.77 240.84 560.77 221.28C560.77 201.72 557.49 193.01 548.92 193.01Z" fill="#4F5637"/>
<path d="M605.74 259.82C594.75 259.82 589.61 253.82 589.61 240.26V192.87L583.76 193.58V188.87L589.9 188.73L598.04 163.89H599.04L603.18 188.59L620.6 188.3L620.74 189.16L603.32 191.3V239.26C603.32 246.11 606.6 250.82 612.74 250.82C617.17 250.82 619.31 248.39 620.16 244.25L621.3 244.68C619.87 255.1 614.88 259.81 605.74 259.81V259.82Z" fill="#4F5637"/>
<path d="M647.57 259.82C636.58 259.82 631.44 253.82 631.44 240.26V192.87L625.59 193.58V188.87L631.73 188.73L639.87 163.89H640.87L645.01 188.59L662.43 188.3L662.57 189.16L645.15 191.3V239.26C645.15 246.11 648.43 250.82 654.57 250.82C659 250.82 661.14 248.39 661.99 244.25L663.13 244.68C661.7 255.1 656.71 259.81 647.57 259.81V259.82Z" fill="#4F5637"/>
<path d="M59.5598 302.65C57.3998 300.42 54.4198 299.05 51.2898 299.05C45.2498 299.05 40.3598 304.3 40.3598 310.27C40.3598 316.24 45.2898 321.49 51.3598 321.49C54.4198 321.49 57.3998 320.05 59.5598 317.89V321.63C57.2198 323.32 54.3498 324.29 51.4698 324.29C43.8098 324.29 37.3398 318.07 37.3398 310.38C37.3398 302.69 43.6998 296.25 51.4698 296.25C54.4898 296.25 57.1498 297.11 59.5598 298.91V302.65Z" fill="#4F5637"/>
<path d="M98.7502 310.31C98.7502 318.11 92.3502 324.29 84.6202 324.29C76.8902 324.29 70.4902 318.11 70.4902 310.31C70.4902 302.51 76.8902 296.25 84.6202 296.25C92.3502 296.25 98.7502 302.54 98.7502 310.31ZM73.5103 310.27C73.5103 316.38 78.4702 321.49 84.6202 321.49C90.7702 321.49 95.7302 316.38 95.7302 310.27C95.7302 304.16 90.8402 299.05 84.6202 299.05C78.4002 299.05 73.5103 304.12 73.5103 310.27Z" fill="#4F5637"/>
<path d="M122.33 302.01C121.25 300.14 119.96 299.06 117.66 299.06C115.36 299.06 113.17 300.79 113.17 303.27C113.17 305.61 115.58 306.69 117.41 307.51L119.21 308.3C122.73 309.85 125.72 311.61 125.72 315.92C125.72 320.67 121.91 324.3 117.2 324.3C112.85 324.3 109.61 321.5 108.75 317.29L111.7 316.46C112.1 319.23 114.22 321.49 117.13 321.49C120.04 321.49 122.7 319.26 122.7 316.21C122.7 313.16 120.22 311.97 117.7 310.82L116.05 310.1C112.89 308.66 110.15 307.04 110.15 303.16C110.15 298.95 113.71 296.26 117.74 296.26C120.76 296.26 123.31 297.81 124.75 300.47L122.34 302.02L122.33 302.01Z" fill="#4F5637"/>
<path d="M144.52 323.829H141.5V299.529H134.96V296.729H151.14V299.529H144.53V323.829H144.52Z" fill="#4F5637"/>
<path d="M161.42 296.719H175.48V299.519H164.44V307.569H175.15V310.369H164.44V321.009H175.48V323.809H161.42V296.699V296.719Z" fill="#4F5637"/>
<path d="M190.83 321.02H198.31V323.82H187.81V296.71H190.83V321.01V321.02Z" fill="#4F5637"/>
<path d="M211.5 321.02H218.979V323.82H208.479V296.71H211.5V321.01V321.02Z" fill="#4F5637"/>
<path d="M233.22 316.14L229.95 323.83H226.64L239.15 295.43L251.34 323.83H248L244.8 316.14H233.22ZM239.08 302.48L234.44 313.34H243.61L239.08 302.48Z" fill="#4F5637"/>
<path d="M278.67 321.02V323.82H259.26L274.04 299.52H261.13V296.72H279.07L264.26 321.02H278.68H278.67Z" fill="#4F5637"/>
<path d="M292.84 323.83H289.82V296.72H292.84V323.83Z" fill="#4F5637"/>
<path d="M332.42 310.31C332.42 318.11 326.02 324.29 318.29 324.29C310.56 324.29 304.16 318.11 304.16 310.31C304.16 302.51 310.56 296.25 318.29 296.25C326.02 296.25 332.42 302.54 332.42 310.31ZM307.18 310.27C307.18 316.38 312.14 321.49 318.29 321.49C324.44 321.49 329.4 316.38 329.4 310.27C329.4 304.16 324.51 299.05 318.29 299.05C312.07 299.05 307.18 304.12 307.18 310.27Z" fill="#4F5637"/>
<path d="M343.89 295.569L365.03 317.719V296.719H368.05V325.049L346.91 302.939V323.829H343.89V295.569Z" fill="#4F5637"/>
<path d="M383.98 323.83H380.96V296.72H383.98V323.83Z" fill="#4F5637"/>
<path d="M417.959 299.53V307.58H426.979V310.38H417.959V323.83H414.939V296.72H427.269V299.52H417.959V299.53Z" fill="#4F5637"/>
<path d="M440.5 316.14L437.23 323.83H433.92L446.43 295.43L458.62 323.83H455.28L452.08 316.14H440.5ZM446.36 302.48L441.72 313.34H450.89L446.36 302.48Z" fill="#4F5637"/>
<path d="M472.29 295.18L482.14 317.94L492.03 295.18L497.53 323.83H494.44L490.95 305.5H490.88L482.14 324.95L473.44 305.5H473.37L469.88 323.83H466.79L472.29 295.18Z" fill="#4F5637"/>
<path d="M511.26 323.83H508.24V296.72H511.26V323.83Z" fill="#4F5637"/>
<path d="M526.98 321.02H534.46V323.82H523.96V296.71H526.98V321.01V321.02Z" fill="#4F5637"/>
<path d="M547.72 323.83H544.7V296.72H547.72V323.83Z" fill="#4F5637"/>
<path d="M564.479 316.14L561.209 323.83H557.899L570.409 295.43L582.599 323.83H579.259L576.059 316.14H564.479ZM570.339 302.48L565.699 313.34H574.87L570.339 302.48Z" fill="#4F5637"/>
<path d="M595.76 323.83H592.74V296.72H596.66C601.8 296.72 606.58 298.09 606.58 304.2C606.58 308.37 603.96 311.32 599.79 311.68L608.42 323.83H604.72L596.52 311.93H595.77V323.83H595.76ZM595.76 309.27H596.69C600.11 309.27 603.56 308.62 603.56 304.42C603.56 299.96 600.29 299.53 596.66 299.53H595.76V309.27Z" fill="#4F5637"/>
<path d="M622.51 323.83H619.49V296.72H622.51V323.83Z" fill="#4F5637"/>
</svg>
