<svg width="363" height="65" viewBox="0 0 363 65" fill="none" xmlns="http://www.w3.org/2000/svg">
<path d="M150.342 31.0889L148.489 25.3588H148.92C151.331 25.3588 154.089 22.6884 154.089 16.7863C154.089 12.2632 152.409 10.1963 148.833 10.1963H147.798V36.5142C147.798 37.6759 148.359 37.6759 149.78 37.7211V37.9806H141.682V37.7211C142.843 37.6789 143.577 37.6789 143.577 36.5142V8.21385C143.577 7.05215 142.843 7.05215 141.682 7.00689V6.74738H148.875C156.283 6.74738 158.353 11.355 158.353 16.1376C158.353 20.9202 155.942 23.9768 152.668 25.0963L154.521 30.3073C156.072 34.6585 157.149 36.6409 158.914 36.6409C159.732 36.6409 160.335 36.1249 160.725 34.7037L160.897 34.746C160.637 36.2547 159.819 38.7953 157.149 38.8376C154.047 38.8798 152.068 36.4267 150.342 31.0828V31.0889Z" fill="#4F5637"/>
<path d="M169.511 38.4122C164.254 38.4122 161.584 34.3206 161.584 26.8253C161.584 19.3301 164.254 15.3682 169.511 15.3682C174.767 15.3682 177.437 19.4176 177.437 26.8253C177.437 34.2331 174.767 38.4122 169.511 38.4122ZM169.511 18.2528C167.012 18.2528 165.935 21.0953 165.935 26.9551C165.935 32.8149 166.925 35.5275 169.511 35.5275C172.097 35.5275 173.086 32.6851 173.086 26.7831C173.086 20.881 172.097 18.2528 169.511 18.2528Z" fill="#4F5637"/>
<path d="M188.379 38.4121C186.484 38.4121 185.105 37.3349 184.891 35.5275C183.427 36.2155 182.22 36.9487 181.101 37.9837H180.971V8.43413C180.971 7.48666 180.67 6.97069 179.508 6.97069V6.71118C181.964 6.71118 183.687 6.49695 185.108 5.67621V34.236C185.41 35.0115 186.315 35.3977 187.091 35.3977C190.235 35.3977 191.873 31.9096 191.873 26.0498C191.873 21.4422 190.624 17.7368 187.866 17.7368C186.747 17.7368 186.013 18.5545 186.013 19.2878H185.799C185.799 17.1786 186.961 15.3681 189.933 15.3681C194.67 15.3681 196.221 20.1507 196.221 25.7933C196.221 33.3308 193.337 38.4151 188.382 38.4151L188.379 38.4121Z" fill="#4F5637"/>
<path d="M207.117 15.3682C211.426 15.3682 213.623 18.0386 213.623 22.26C213.623 23.2497 213.493 24.3722 213.236 25.5339C212.461 25.6214 210.65 25.6636 208.885 25.6636C207.12 25.6636 205.31 25.4916 204.492 25.4041L204.534 25.0601C206.043 25.0179 208.24 24.6286 209.489 24.3269C209.661 23.4669 209.703 22.7759 209.703 21.916C209.703 19.8491 208.713 18.0386 206.99 18.0386C203.976 18.0386 203.502 22.3897 203.502 27.2991C203.502 32.2084 205.439 35.5275 209.275 35.5275C211.127 35.5275 212.633 34.5801 213.11 32.8571L213.454 32.9869C212.72 36.131 210.741 38.4152 207.12 38.4152C201.692 38.4152 199.193 34.0641 199.193 27.3021C199.193 20.54 201.52 15.3712 207.12 15.3712L207.117 15.3682Z" fill="#4F5637"/>
<path d="M216.12 37.9806V37.8086C217.282 37.7664 217.584 37.2474 217.584 36.5172V18.5545C217.584 17.6071 217.282 17.0911 216.12 17.0911V16.8316C218.103 16.8316 219.436 16.4876 220.643 15.7966V22.4289H220.945C221.075 18.3373 222.496 15.3651 226.156 15.3651C228.483 15.3651 229.946 16.8738 229.946 18.983C229.946 21.6957 227.792 23.2466 224.69 23.2466V22.9871C226.283 22.9871 226.886 21.8254 226.886 20.6607C226.886 19.496 226.283 18.5937 224.777 18.5937C222.924 18.5937 221.718 20.3167 221.718 23.4186V36.5142C221.718 37.2474 221.932 37.7211 224.128 37.8056V37.9776H216.117L216.12 37.9806Z" fill="#4F5637"/>
<path d="M238.864 38.4122C235.548 38.4122 233.997 36.6017 233.997 32.5101V18.2106L232.231 18.4248V17.0036L234.084 16.9614L236.54 9.46613H236.842L238.091 16.9191L243.348 16.8316L243.39 17.0911L238.134 17.7369V32.2084C238.134 34.2753 239.123 35.6965 240.976 35.6965C242.313 35.6965 242.958 34.9633 243.215 33.7141L243.559 33.8438C243.127 36.988 241.622 38.4092 238.864 38.4092V38.4122Z" fill="#4F5637"/>
<path d="M253.38 23.6812C252.906 25.1024 251.615 25.9201 250.193 25.9201C247.481 25.9201 245.586 24.0252 245.586 21.3125C245.586 17.6524 248.256 15.3682 252.004 15.3682C257.562 15.3682 259.327 19.0736 259.327 24.5864V33.0714C259.327 35.6573 259.541 36.9065 260.576 36.9065C261.05 36.9065 261.436 36.647 261.436 36.0013C261.436 35.8293 261.394 35.615 261.349 35.3555L261.521 35.3133C261.65 35.6573 261.693 35.959 261.693 36.2185C261.693 37.51 260.658 38.4152 259.194 38.4152C256.654 38.4152 255.619 37.166 255.619 35.2711C255.619 34.7098 255.748 33.6779 255.92 32.6429H255.748C254.713 37.1237 252.345 38.4152 249.59 38.4152C247.481 38.4152 245.154 37.1238 245.154 34.3236C245.154 30.404 248.86 28.9405 254.415 28.9405H254.759L254.801 29.2H254.587C252.478 29.2 249.376 30.7087 249.376 33.1619C249.376 34.7973 250.411 35.5728 252.004 35.5728C253.597 35.5728 254.762 34.2814 255.19 32.6007V24.5894C255.19 21.3155 254.544 18.4731 251.874 18.4731C249.892 18.4731 248.428 19.6801 248.428 21.8768C248.428 23.3402 249.161 24.8912 251.186 24.8912C252.134 24.8912 252.951 24.4174 253.253 23.6842H253.383L253.38 23.6812Z" fill="#4F5637"/>
<path d="M271.3 6.75348H274.96C276.469 6.75348 278.493 6.62373 279.224 6.32199L284.35 20.4948L289.477 6.32199C290.252 6.62373 292.361 6.75348 293.312 6.75348H297.144V7.01297C295.895 7.10048 295.249 7.05523 295.249 8.17469V36.475C295.249 37.6367 295.982 37.6367 297.144 37.7242V37.9837H289.305V37.7242C290.295 37.6367 291.2 37.682 291.2 36.5173V11.3611L284.954 27.6853C284.694 28.3732 284.308 29.366 284.308 29.9695H284.048L277.241 11.3611V36.5173C277.241 37.679 277.543 37.679 278.964 37.7242V37.9837H271.297V37.7242C272.459 37.682 273.192 37.682 273.192 36.5173V8.17469C273.192 7.09747 272.459 7.05522 271.297 7.01297V6.75348H271.3Z" fill="#4F5637"/>
<path d="M307.313 38.4122C302.057 38.4122 299.387 34.3206 299.387 26.8253C299.387 19.3301 302.057 15.3682 307.313 15.3682C312.57 15.3682 315.24 19.4176 315.24 26.8253C315.24 34.2331 312.57 38.4122 307.313 38.4122ZM307.313 18.2528C304.815 18.2528 303.738 21.0953 303.738 26.9551C303.738 32.8149 304.728 35.5275 307.313 35.5275C309.899 35.5275 310.889 32.6851 310.889 26.7831C310.889 20.881 309.899 18.2528 307.313 18.2528Z" fill="#4F5637"/>
<path d="M324.459 38.4122C321.143 38.4122 319.592 36.6017 319.592 32.5101V18.2106L317.827 18.4248V17.0036L319.679 16.9614L322.136 9.46613H322.437L323.686 16.9191L328.943 16.8316L328.985 17.0911L323.729 17.7369V32.2084C323.729 34.2753 324.718 35.6965 326.571 35.6965C327.908 35.6965 328.554 34.9633 328.81 33.7141L329.154 33.8438C328.723 36.988 327.217 38.4092 324.459 38.4092V38.4122Z" fill="#4F5637"/>
<path d="M337.081 38.4122C333.764 38.4122 332.213 36.6017 332.213 32.5101V18.2106L330.448 18.4248V17.0036L332.301 16.9614L334.757 9.46613H335.059L336.308 16.9191L341.564 16.8316L341.607 17.0911L336.35 17.7369V32.2084C336.35 34.2753 337.34 35.6965 339.193 35.6965C340.529 35.6965 341.175 34.9633 341.432 33.7141L341.776 33.8438C341.344 36.988 339.838 38.4092 337.081 38.4092V38.4122Z" fill="#4F5637"/>
<path d="M148.571 51.0296C147.83 50.2653 146.809 49.7958 145.736 49.7958C143.666 49.7958 141.99 51.5951 141.99 53.6412C141.99 55.6874 143.68 57.4867 145.76 57.4867C146.809 57.4867 147.83 56.9932 148.571 56.2529V57.5347C147.769 58.1139 146.785 58.4464 145.798 58.4464C143.173 58.4464 140.955 56.3145 140.955 53.6789C140.955 51.0433 143.135 48.8361 145.798 48.8361C146.833 48.8361 147.745 49.1309 148.571 49.7478V51.0296Z" fill="#4F5637"/>
<path d="M162.002 53.655C162.002 56.3283 159.809 58.4464 157.159 58.4464C154.51 58.4464 152.316 56.3283 152.316 53.655C152.316 50.9816 154.51 48.8361 157.159 48.8361C159.809 48.8361 162.002 50.9919 162.002 53.655ZM153.351 53.6412C153.351 55.7353 155.051 57.4867 157.159 57.4867C159.267 57.4867 160.967 55.7353 160.967 53.6412C160.967 51.5471 159.291 49.7958 157.159 49.7958C155.027 49.7958 153.351 51.5334 153.351 53.6412Z" fill="#4F5637"/>
<path d="M170.083 50.8104C169.713 50.1695 169.271 49.7994 168.482 49.7994C167.694 49.7994 166.944 50.3923 166.944 51.2422C166.944 52.0442 167.77 52.4144 168.397 52.6954L169.014 52.9662C170.22 53.4974 171.245 54.1006 171.245 55.5778C171.245 57.2058 169.939 58.4499 168.325 58.4499C166.834 58.4499 165.723 57.4903 165.429 56.0474L166.44 55.7629C166.577 56.7123 167.303 57.4868 168.301 57.4868C169.298 57.4868 170.21 56.7225 170.21 55.6772C170.21 54.6319 169.36 54.224 168.496 53.8299L167.931 53.5831C166.848 53.0896 165.909 52.5344 165.909 51.2046C165.909 49.7617 167.129 48.8397 168.51 48.8397C169.545 48.8397 170.419 49.3709 170.912 50.2826L170.086 50.8138L170.083 50.8104Z" fill="#4F5637"/>
<path d="M177.689 58.2888H176.654V49.9604H174.412V49.0008H179.958V49.9604H177.692V58.2888H177.689Z" fill="#4F5637"/>
<path d="M183.481 48.9973H188.3V49.9569H184.517V52.7159H188.187V53.6756H184.517V57.3222H188.3V58.2819H183.481V48.9904V48.9973Z" fill="#4F5637"/>
<path d="M193.561 57.3256H196.125V58.2852H192.526V48.9937H193.561V57.3221V57.3256Z" fill="#4F5637"/>
<path d="M200.646 57.3256H203.21V58.2852H199.611V48.9937H200.646V57.3221V57.3256Z" fill="#4F5637"/>
<path d="M208.089 55.6532L206.968 58.2888H205.834L210.122 48.5552L214.299 58.2888H213.155L212.058 55.6532H208.089ZM210.098 50.9714L208.507 54.6935H211.65L210.098 50.9714Z" fill="#4F5637"/>
<path d="M223.667 57.3257V58.2853H217.015L222.08 49.9569H217.656V48.9973H223.804L218.728 57.3257H223.671H223.667Z" fill="#4F5637"/>
<path d="M228.523 58.2888H227.488V48.9973H228.523V58.2888Z" fill="#4F5637"/>
<path d="M242.088 53.655C242.088 56.3283 239.894 58.4464 237.245 58.4464C234.596 58.4464 232.402 56.3283 232.402 53.655C232.402 50.9816 234.596 48.8361 237.245 48.8361C239.894 48.8361 242.088 50.9919 242.088 53.655ZM233.437 53.6412C233.437 55.7353 235.137 57.4867 237.245 57.4867C239.353 57.4867 241.053 55.7353 241.053 53.6412C241.053 51.5471 239.377 49.7958 237.245 49.7958C235.113 49.7958 233.437 51.5334 233.437 53.6412Z" fill="#4F5637"/>
<path d="M246.02 48.6032L253.265 56.1947V48.9973H254.3V58.7069L247.055 51.1291V58.2888H246.02V48.6032Z" fill="#4F5637"/>
<path d="M259.76 58.2888H258.725V48.9973H259.76V58.2888Z" fill="#4F5637"/>
<path d="M271.406 49.9604V52.7194H274.498V53.679H271.406V58.2888H270.371V48.9973H274.597V49.9569H271.406V49.9604Z" fill="#4F5637"/>
<path d="M279.131 55.6532L278.01 58.2888H276.876L281.164 48.5552L285.341 58.2888H284.197L283.1 55.6532H279.131ZM281.14 50.9714L279.549 54.6935H282.692L281.14 50.9714Z" fill="#4F5637"/>
<path d="M290.027 48.4695L293.403 56.27L296.792 48.4695L298.677 58.2887H297.618L296.422 52.0064H296.398L293.403 58.6726L290.421 52.0064H290.397L289.201 58.2887H288.142L290.027 48.4695Z" fill="#4F5637"/>
<path d="M303.383 58.2888H302.348V48.9973H303.383V58.2888Z" fill="#4F5637"/>
<path d="M308.77 57.3256H311.334V58.2852H307.735V48.9937H308.77V57.3221V57.3256Z" fill="#4F5637"/>
<path d="M315.879 58.2888H314.844V48.9973H315.879V58.2888Z" fill="#4F5637"/>
<path d="M321.623 55.6532L320.503 58.2888H319.368L323.656 48.5552L327.834 58.2888H326.689L325.592 55.6532H321.623ZM323.632 50.9714L322.041 54.6935H325.184L323.632 50.9714Z" fill="#4F5637"/>
<path d="M332.345 58.2888H331.31V48.9973H332.653C334.415 48.9973 336.053 49.4668 336.053 51.5609C336.053 52.9901 335.155 54.0012 333.726 54.1246L336.684 58.2888H335.415L332.605 54.2103H332.348V58.2888H332.345ZM332.345 53.2986H332.663C333.835 53.2986 335.018 53.0758 335.018 51.6363C335.018 50.1077 333.897 49.9604 332.653 49.9604H332.345V53.2986Z" fill="#4F5637"/>
<path d="M341.512 58.2888H340.477V48.9973H341.512V58.2888Z" fill="#4F5637"/>
<path d="M30.9776 64.2323C13.8951 64.2323 0 50.2985 0 33.1683V31.3498H16.045C15.9141 29.9297 15.8487 28.4815 15.8487 27.0333C15.8487 12.7152 29.2484 1.43415 29.8186 0.960783L30.973 0L32.1274 0.960783C32.6976 1.43415 46.0972 12.7152 46.0972 27.0333C46.0972 28.4815 46.0318 29.9297 45.901 31.3498H61.946V33.1683C61.946 50.2985 48.0509 64.2323 30.9683 64.2323H30.9776ZM3.68757 34.9868C4.62232 49.2674 16.5077 60.5953 30.9776 60.5953C45.4476 60.5953 57.333 49.2674 58.2677 34.9868H41.7927L42.0778 32.9199C42.3442 31.0077 42.4751 29.0252 42.4751 27.0333C42.4751 16.7412 34.0997 7.7941 30.973 4.81331C27.8462 7.7941 19.4709 16.7412 19.4709 27.0333C19.4709 29.0252 19.6064 31.0077 19.8681 32.9199L20.1532 34.9868H3.67824H3.68757Z" fill="#98AF6D"/>
<path d="M62.9415 64.2323C45.859 64.2323 31.9639 50.2985 31.9639 33.1684V31.3499H48.0089C47.878 29.9251 47.8126 28.4816 47.8126 27.0334C47.8126 12.7153 61.2122 1.43421 61.7824 0.960844L62.9369 6.10352e-05L64.0913 0.960844C64.6615 1.43421 78.0611 12.7153 78.0611 27.0334C78.0611 28.4816 77.9957 29.9298 77.8648 31.3499H93.9098V33.1684C93.9098 50.2985 80.0148 64.2323 62.9322 64.2323H62.9415ZM35.6515 34.9868C36.5862 49.2674 48.4716 60.5954 62.9415 60.5954C77.4115 60.5954 89.2969 49.2674 90.2316 34.9868H73.7566L74.0417 32.92C74.3081 31.0078 74.439 29.0253 74.439 27.0334C74.439 16.7412 66.0636 7.79416 62.9369 4.81337C59.8101 7.79416 51.4348 16.7412 51.4348 27.0334C51.4348 29.0253 51.5703 31.0078 51.832 32.92L52.1171 34.9868H35.6421H35.6515Z" fill="#98AF6D"/>
<path d="M95.42 64.2323C78.3374 64.2323 64.4424 50.2985 64.4424 33.1684V31.3499H80.4874C80.3565 29.9298 80.2911 28.4816 80.2911 27.0334C80.2911 12.7153 93.6908 1.43421 94.261 0.960844L95.4154 6.10352e-05L96.5698 0.960844C97.14 1.43421 110.54 12.7153 110.54 27.0334C110.54 28.4816 110.474 29.9298 110.343 31.3499H126.388V33.1684C126.388 50.2985 112.493 64.2323 95.4107 64.2323H95.42ZM68.13 34.9868C69.0647 49.2674 80.9501 60.5954 95.42 60.5954C109.89 60.5954 121.775 49.2674 122.71 34.9868H106.235L106.52 32.92C106.787 31.0078 106.918 29.0253 106.918 27.0334C106.918 16.7412 98.5422 7.79416 95.4154 4.81337C92.2887 7.79416 83.9133 16.7412 83.9133 27.0334C83.9133 29.0253 84.0488 31.0078 84.3105 32.92L84.5957 34.9868H68.1207H68.13Z" fill="#98AF6D"/>
</svg>
